<svg width="151" height="38" viewBox="0 0 151 38" fill="none" xmlns="http://www.w3.org/2000/svg">
<path d="M52.7645 27.364C51.5576 27.364 50.4777 27.1575 49.5248 26.7446C48.5878 26.3317 47.8414 25.7282 47.2856 24.9342C46.7456 24.1402 46.4677 23.1794 46.4518 22.0518H49.8583C49.8742 22.5441 50.0012 22.9888 50.2394 23.3858C50.4777 23.7828 50.8032 24.1005 51.2161 24.3387C51.6449 24.561 52.1531 24.6722 52.7407 24.6722C53.2489 24.6722 53.6856 24.5928 54.0509 24.434C54.432 24.2593 54.7258 24.0211 54.9322 23.7193C55.1387 23.4176 55.2419 23.0603 55.2419 22.6474C55.2419 22.1709 55.1228 21.7739 54.8846 21.4563C54.6623 21.1387 54.3447 20.8687 53.9318 20.6464C53.5347 20.424 53.0662 20.2255 52.5263 20.0508C52.0022 19.8603 51.4464 19.6617 50.8588 19.4553C49.5407 19.0265 48.5322 18.4548 47.8335 17.7402C47.1506 17.0255 46.8092 16.0806 46.8092 14.9054C46.8092 13.9049 47.0474 13.0473 47.5238 12.3327C48.0161 11.6181 48.6911 11.0702 49.5486 10.689C50.4062 10.3079 51.3829 10.1173 52.4786 10.1173C53.6062 10.1173 54.5908 10.3158 55.4325 10.7128C56.2901 11.094 56.965 11.6498 57.4573 12.3803C57.9655 13.1109 58.2275 13.9684 58.2434 14.9531H54.8131C54.7973 14.5878 54.6861 14.2464 54.4796 13.9287C54.2891 13.5952 54.0191 13.3332 53.6697 13.1426C53.3203 12.9362 52.9074 12.8329 52.431 12.8329C52.0181 12.8171 51.637 12.8806 51.2876 13.0235C50.9541 13.1664 50.6841 13.3808 50.4777 13.6667C50.2871 13.9367 50.1918 14.2781 50.1918 14.691C50.1918 15.088 50.2871 15.4215 50.4777 15.6915C50.6841 15.9615 50.962 16.1997 51.3114 16.4062C51.6608 16.5967 52.0737 16.7794 52.5501 16.954C53.0265 17.1129 53.5427 17.2796 54.0985 17.4543C54.9243 17.7402 55.6866 18.0816 56.3854 18.4786C57.0841 18.8598 57.6399 19.36 58.0528 19.9794C58.4658 20.5987 58.6722 21.4166 58.6722 22.433C58.6722 23.3064 58.4419 24.1163 57.9814 24.8627C57.5208 25.6091 56.8538 26.2126 55.9804 26.6732C55.1228 27.1337 54.0509 27.364 52.7645 27.364ZM66.9981 27.364C65.8547 27.364 64.8225 27.1019 63.9014 26.5779C62.9962 26.0379 62.2736 25.2995 61.7336 24.3625C61.2095 23.4096 60.9475 22.3218 60.9475 21.099C60.9475 19.8444 61.2095 18.7486 61.7336 17.8116C62.2736 16.8588 63.0041 16.1203 63.9252 15.5962C64.8463 15.0563 65.8785 14.7863 67.022 14.7863C68.1813 14.7863 69.2135 15.0563 70.1187 15.5962C71.0398 16.1203 71.7624 16.8588 72.2865 17.8116C72.8264 18.7486 73.0964 19.8364 73.0964 21.0751C73.0964 22.3139 72.8264 23.4096 72.2865 24.3625C71.7624 25.2995 71.0398 26.0379 70.1187 26.5779C69.1976 27.1019 68.1574 27.364 66.9981 27.364ZM66.9981 24.5769C67.5381 24.5769 68.0145 24.4498 68.4274 24.1957C68.8562 23.9416 69.1897 23.5526 69.4279 23.0285C69.682 22.5044 69.8091 21.8533 69.8091 21.0751C69.8091 20.297 69.682 19.6538 69.4279 19.1456C69.1897 18.6215 68.8562 18.2325 68.4274 17.9784C68.0145 17.7084 67.546 17.5734 67.022 17.5734C66.5138 17.5734 66.0453 17.7084 65.6165 17.9784C65.1877 18.2325 64.8463 18.6215 64.5922 19.1456C64.354 19.6538 64.2349 20.297 64.2349 21.0751C64.2349 21.8533 64.354 22.5044 64.5922 23.0285C64.8463 23.5526 65.1798 23.9416 65.5927 24.1957C66.0215 24.4498 66.49 24.5769 66.9981 24.5769ZM76.416 27.0781V14.0002C76.416 12.9997 76.5827 12.2057 76.9162 11.6181C77.2497 11.0305 77.7261 10.6017 78.3455 10.3317C78.9807 10.0617 79.7192 9.92674 80.5609 9.92674H82.0378V12.6662H81.0373C80.5291 12.6662 80.1638 12.7694 79.9415 12.9759C79.7351 13.1664 79.6318 13.5079 79.6318 14.0002V27.0781H76.416ZM74.7723 17.764V15.0722H82.2284V17.764H74.7723ZM90.1155 27.0781C89.2738 27.0781 88.5353 26.9511 87.9001 26.697C87.2807 26.427 86.7964 25.9903 86.447 25.3868C86.0976 24.7675 85.9229 23.9258 85.9229 22.8617V17.764H83.8743V15.0722H85.9229L86.2802 11.8086H89.1388V15.0722H92.307V17.764H89.1388V22.9094C89.1388 23.4493 89.2579 23.8225 89.4961 24.029C89.7343 24.2354 90.1393 24.3387 90.711 24.3387H92.2832V27.0781H90.1155ZM97.3719 27.0781L93.8463 15.0722H97.0145L99.349 24.8151L98.7535 24.7913L101.421 15.0722H104.995L107.663 24.7913L107.043 24.8151L109.402 15.0722H112.57L109.044 27.0781H105.709L102.875 17.0732H103.542L100.707 27.0781H97.3719ZM117.976 27.364C116.976 27.364 116.15 27.2052 115.499 26.8876C114.848 26.5541 114.363 26.1173 114.046 25.5774C113.744 25.0215 113.593 24.4101 113.593 23.7431C113.593 23.0126 113.776 22.3694 114.141 21.8136C114.522 21.2578 115.086 20.821 115.832 20.5034C116.594 20.1858 117.547 20.027 118.691 20.027H121.668C121.668 19.4394 121.589 18.955 121.43 18.5739C121.271 18.1769 121.025 17.8831 120.692 17.6925C120.358 17.5019 119.914 17.4067 119.358 17.4067C118.754 17.4067 118.238 17.5416 117.809 17.8116C117.396 18.0657 117.142 18.4627 117.047 19.0027H113.926C114.006 18.1451 114.284 17.4067 114.76 16.7873C115.252 16.1521 115.896 15.6598 116.69 15.3104C117.5 14.961 118.397 14.7863 119.382 14.7863C120.509 14.7863 121.486 14.9769 122.312 15.358C123.137 15.7392 123.773 16.287 124.217 17.0017C124.662 17.7163 124.884 18.5977 124.884 19.6459V27.0781H122.169L121.811 25.2439C121.637 25.5615 121.43 25.8474 121.192 26.1014C120.954 26.3555 120.676 26.5779 120.358 26.7684C120.041 26.959 119.683 27.1019 119.286 27.1972C118.889 27.3084 118.452 27.364 117.976 27.364ZM118.738 24.8866C119.151 24.8866 119.516 24.8151 119.834 24.6722C120.168 24.5134 120.453 24.3069 120.692 24.0528C120.93 23.7828 121.113 23.4811 121.24 23.1476C121.382 22.7982 121.478 22.425 121.525 22.028V22.0042H119.072C118.58 22.0042 118.175 22.0677 117.857 22.1947C117.555 22.3059 117.333 22.4727 117.19 22.695C117.047 22.9173 116.976 23.1714 116.976 23.4573C116.976 23.7749 117.047 24.0369 117.19 24.2434C117.333 24.4498 117.539 24.6086 117.809 24.7198C118.079 24.831 118.389 24.8866 118.738 24.8866ZM127.884 27.0781V15.0722H130.743L131.052 17.2875C131.338 16.7635 131.696 16.3188 132.124 15.9535C132.569 15.5883 133.069 15.3024 133.625 15.096C134.197 14.8895 134.824 14.7863 135.507 14.7863V18.1928H134.411C133.935 18.1928 133.49 18.2483 133.077 18.3595C132.68 18.4707 132.331 18.6533 132.029 18.9074C131.727 19.1456 131.497 19.4791 131.338 19.9079C131.18 20.3367 131.1 20.8766 131.1 21.5277V27.0781H127.884ZM143.21 27.364C142.003 27.364 140.931 27.1099 139.994 26.6017C139.073 26.0776 138.351 25.355 137.826 24.434C137.318 23.497 137.064 22.4171 137.064 21.1942C137.064 19.9397 137.318 18.8359 137.826 17.8831C138.335 16.9143 139.049 16.16 139.97 15.62C140.907 15.0642 141.987 14.7863 143.21 14.7863C144.401 14.7863 145.441 15.0483 146.331 15.5724C147.22 16.0965 147.911 16.8032 148.403 17.6925C148.895 18.5818 149.142 19.5903 149.142 20.7178C149.142 20.8766 149.142 21.0593 149.142 21.2657C149.142 21.4563 149.126 21.6548 149.094 21.8612H139.351V19.9079H145.902C145.854 19.1297 145.576 18.5183 145.068 18.0736C144.576 17.629 143.957 17.4067 143.21 17.4067C142.67 17.4067 142.17 17.5337 141.709 17.7878C141.249 18.026 140.884 18.3992 140.614 18.9074C140.359 19.4156 140.232 20.0588 140.232 20.8369V21.5277C140.232 22.1789 140.352 22.7506 140.59 23.2429C140.844 23.7193 141.193 24.0925 141.638 24.3625C142.083 24.6166 142.599 24.7436 143.186 24.7436C143.774 24.7436 144.258 24.6166 144.639 24.3625C145.036 24.1084 145.33 23.7828 145.521 23.3858H148.808C148.586 24.1322 148.213 24.8072 147.689 25.4106C147.164 26.0141 146.521 26.4905 145.759 26.8399C144.997 27.1893 144.147 27.364 143.21 27.364Z" fill="#475569"/>
<rect x="7.01025" y="7.01025" width="23.8366" height="23.8366" rx="5.01502" fill="#475569"/>
<rect x="11.8906" width="3.63751" height="5.60862" rx="1.81875" fill="#475569"/>
<rect x="17.1104" width="3.63751" height="5.60862" rx="1.81875" fill="#475569"/>
<rect x="22.3315" width="3.63751" height="5.60862" rx="1.81875" fill="#475569"/>
<rect y="25.9673" width="3.63751" height="5.60862" rx="1.81875" transform="rotate(-90 0 25.9673)" fill="#475569"/>
<rect y="20.7476" width="3.63751" height="5.60862" rx="1.81875" transform="rotate(-90 0 20.7476)" fill="#475569"/>
<rect y="15.5281" width="3.63751" height="5.60862" rx="1.81875" transform="rotate(-90 0 15.5281)" fill="#475569"/>
<rect x="32.2495" y="25.9673" width="3.63751" height="5.60862" rx="1.81875" transform="rotate(-90 32.2495 25.9673)" fill="#475569"/>
<rect x="32.2495" y="20.7476" width="3.63751" height="5.60862" rx="1.81875" transform="rotate(-90 32.2495 20.7476)" fill="#475569"/>
<rect x="32.2495" y="15.5281" width="3.63751" height="5.60862" rx="1.81875" transform="rotate(-90 32.2495 15.5281)" fill="#475569"/>
<rect x="11.8906" y="32.2495" width="3.63751" height="5.60862" rx="1.81875" fill="#475569"/>
<rect x="17.1104" y="32.2495" width="3.63751" height="5.60862" rx="1.81875" fill="#475569"/>
<rect x="22.3315" y="32.2495" width="3.63751" height="5.60862" rx="1.81875" fill="#475569"/>
</svg>
